<?xml version="1.0" encoding="UTF-8" standalone="no"?>
<svg
   xmlns:dc="http://purl.org/dc/elements/1.1/"
   xmlns:cc="http://creativecommons.org/ns#"
   xmlns:rdf="http://www.w3.org/1999/02/22-rdf-syntax-ns#"
   xmlns:svg="http://www.w3.org/2000/svg"
   xmlns="http://www.w3.org/2000/svg"
   xmlns:sodipodi="http://sodipodi.sourceforge.net/DTD/sodipodi-0.dtd"
   xmlns:inkscape="http://www.inkscape.org/namespaces/inkscape"
   inkscape:version="1.0 (4035a4fb49, 2020-05-01)"
   sodipodi:docname="pipeline.svg"
   id="svg8"
   version="1.1"
   viewBox="0 0 143.61949 77.01104"
   height="77.01104mm"
   width="143.61949mm">
  <defs
     id="defs2" />
  <sodipodi:namedview
     inkscape:window-maximized="1"
     inkscape:window-y="-9"
     inkscape:window-x="-9"
     inkscape:window-height="1013"
     inkscape:window-width="1920"
     showgrid="false"
     inkscape:document-rotation="0"
     inkscape:current-layer="layer1"
     inkscape:document-units="mm"
     inkscape:cy="475.4462"
     inkscape:cx="451.93624"
     inkscape:zoom="0.5"
     inkscape:pageshadow="2"
     inkscape:pageopacity="0.0"
     borderopacity="1.0"
     bordercolor="#666666"
     pagecolor="#ffffff"
     id="base" />
  <metadata
     id="metadata5">
    <rdf:RDF>
      <cc:Work
         rdf:about="">
        <dc:format>image/svg+xml</dc:format>
        <dc:type
           rdf:resource="http://purl.org/dc/dcmitype/StillImage" />
      </cc:Work>
    </rdf:RDF>
  </metadata>
  <g
     transform="translate(-11.213517,-14.131396)"
     id="layer1"
     inkscape:groupmode="layer"
     inkscape:label="Layer 1">
    <rect
       y="15.237846"
       x="11.280249"
       height="31.462683"
       width="37.642715"
       id="rect835"
       style="fill:#ffffff;fill-opacity:1;stroke:#000000;stroke-width:0.133463;stroke-opacity:1" />
    <text
       id="text839"
       y="29.022865"
       x="12.738314"
       style="font-style:normal;font-weight:normal;font-size:5.8224px;line-height:1.25;font-family:sans-serif;fill:#000000;fill-opacity:1;stroke:none;stroke-width:0.14556"
       xml:space="preserve"><tspan
         style="stroke-width:0.14556"
         y="29.022865"
         x="12.738314"
         id="tspan837"
         sodipodi:role="line">Simulator</tspan><tspan
         id="tspan841"
         style="stroke-width:0.14556"
         y="36.300865"
         x="12.738314"
         sodipodi:role="line">(C++ code)</tspan></text>
    <rect
       style="fill:#ffffff;fill-opacity:1;stroke:#000000;stroke-width:0.133463;stroke-opacity:1"
       id="rect843"
       width="37.642715"
       height="31.462683"
       x="59.107285"
       y="14.821959" />
    <text
       xml:space="preserve"
       style="font-style:normal;font-weight:normal;font-size:5.8224px;line-height:1.25;font-family:sans-serif;fill:#000000;fill-opacity:1;stroke:none;stroke-width:0.14556"
       x="60.565346"
       y="28.606979"
       id="text849"><tspan
         sodipodi:role="line"
         x="60.565346"
         y="28.606979"
         style="stroke-width:0.14556"
         id="tspan847">Clickhouse</tspan></text>
    <rect
       y="14.205437"
       x="108.39724"
       height="31.448067"
       width="46.361729"
       id="rect853"
       style="fill:#ffffff;fill-opacity:1;stroke:#000000;stroke-width:0.148081;stroke-opacity:1" />
    <text
       id="text857"
       y="27.983149"
       x="109.84799"
       style="font-style:normal;font-weight:normal;font-size:5.8224px;line-height:1.25;font-family:sans-serif;fill:#000000;fill-opacity:1;stroke:none;stroke-width:0.14556"
       xml:space="preserve"><tspan
         id="tspan855"
         style="stroke-width:0.14556"
         y="27.983149"
         x="109.84799"
         sodipodi:role="line">Mathematica/</tspan><tspan
         id="tspan859"
         style="stroke-width:0.14556"
         y="35.26115"
         x="109.84799"
         sodipodi:role="line">Jupyter</tspan></text>
    <rect
       style="fill:#ffffff;fill-opacity:1;stroke:#000000;stroke-width:0.148081;stroke-opacity:1"
       id="rect861"
       width="46.361729"
       height="31.448067"
       x="49.590778"
       y="59.620327" />
    <text
       xml:space="preserve"
       style="font-style:normal;font-weight:normal;font-size:5.8224px;line-height:1.25;font-family:sans-serif;fill:#000000;fill-opacity:1;stroke:none;stroke-width:0.14556"
       x="51.041531"
       y="73.398033"
       id="text867"><tspan
         sodipodi:role="line"
         x="51.041531"
         y="73.398033"
         style="stroke-width:0.14556"
         id="tspan865">Jenkins</tspan></text>
    <path
       id="path871"
       d="m 49.149243,31.975663 c 0.600615,0.148663 1.286016,-0.121255 1.892287,0 0.876998,0.175398 1.637769,0.740003 2.474529,1.018923 0.885528,0.295177 1.999538,-0.32687 2.765651,-0.582242 0.478825,-0.159608 1.601837,-0.291121 2.037847,-0.291121 -0.391126,-1.123305 -1.38678,-1.24122 -2.037847,-1.892286"
       style="fill:none;stroke:#000000;stroke-width:0.14556px;stroke-linecap:butt;stroke-linejoin:miter;stroke-opacity:1" />
    <path
       id="path873"
       d="m 58.319557,32.121223 c -0.914878,0.540955 -1.410097,0.682295 -2.037847,1.310045 -0.123703,0.123703 -0.432196,0.540136 -0.291121,0.436681 0.782537,-0.573862 1.552644,-1.164484 2.328968,-1.746726"
       style="fill:none;stroke:#000000;stroke-width:0.14556px;stroke-linecap:butt;stroke-linejoin:miter;stroke-opacity:1" />
    <path
       id="path875"
       d="m 96.601976,29.937815 c 3.797404,0.986177 7.750264,0.727803 11.644844,0.727803"
       style="fill:none;stroke:#000000;stroke-width:0.14556px;stroke-linecap:butt;stroke-linejoin:miter;stroke-opacity:1" />
    <path
       id="path877"
       d="m 104.31669,28.62777 c 0.5061,0.25305 0.94285,0.634079 1.4556,0.873363 3.68418,1.719286 -2.68187,-1.92936 2.47453,1.164485 -0.46088,0.975593 -0.77874,1.044394 -1.60116,1.455605 -0.12275,0.06137 -0.16837,0.229748 -0.29112,0.291122 -0.19734,0.09867 -0.39683,0.105709 -0.58224,0.29112"
       style="fill:none;stroke:#000000;stroke-width:0.14556px;stroke-linecap:butt;stroke-linejoin:miter;stroke-opacity:1" />
    <path
       id="path879"
       d="m 72.29337,59.195483 c -0.218036,-1.213805 0.160743,-2.320062 0.291123,-3.493453 0.08573,-0.771574 0,-1.552646 0,-2.328968 0,-0.436682 0.262009,-0.9607 0,-1.310045 -0.164688,-0.219577 -0.459497,-0.336747 -0.582246,-0.582242 -0.4484,-0.896797 -0.145559,-3.607295 -0.145559,-4.512377 -1.056162,0.401344 -1.223891,0.803548 -1.601168,1.746727 -0.0406,0.101518 -0.51209,0.657652 -0.145558,0.291121"
       style="fill:none;stroke:#000000;stroke-width:0.14556px;stroke-linecap:butt;stroke-linejoin:miter;stroke-opacity:1" />
    <path
       id="path881"
       d="m 71.856688,46.968398 c 0.711053,-1.210933 2.217352,0.179504 2.911213,0.873363 0.439454,0.439456 0.291117,1.471834 0.291117,1.164485"
       style="fill:none;stroke:#000000;stroke-width:0.14556px;stroke-linecap:butt;stroke-linejoin:miter;stroke-opacity:1" />
    <path
       id="path883"
       d="m 53.516059,59.486604 c -0.866992,-0.385329 -4.467973,-1.938275 -5.240179,-2.474529 -0.959789,-0.666519 -1.729082,-1.572962 -2.62009,-2.328968 -1.552036,-1.31688 -3.360785,-2.487422 -4.803498,-3.930135 -0.219684,-0.219684 -0.362557,-0.508118 -0.582242,-0.727803 -0.171544,-0.171544 -0.410697,-0.265137 -0.582242,-0.436681 -0.91752,-0.917521 1.221176,0.62476 -0.582242,-0.727803 -0.160043,-0.120032 -0.403309,-0.05609 -0.582242,-0.14556 -0.232897,-0.116449 -0.349345,-0.465794 -0.582242,-0.582242 -0.566843,-0.283423 -0.809895,-0.53993 -1.310045,-0.873364 -0.296631,-0.197754 -0.186653,0.25003 -0.582242,-0.145561 -0.13059,1.039878 0.873363,1.212663 0.873363,2.183409"
       style="fill:none;stroke:#000000;stroke-width:0.14556px;stroke-linecap:butt;stroke-linejoin:miter;stroke-opacity:1" />
    <path
       id="path885"
       d="m 36.048795,47.113957 c 3.918412,0.244903 0.922322,-0.142207 3.639013,0.582244 1.103969,0.294392 0.552168,-0.01204 1.310045,0.291121 0.152413,0.06097 0.735218,0.291121 0.436681,0.291121"
       style="fill:none;stroke:#000000;stroke-width:0.14556px;stroke-linecap:butt;stroke-linejoin:miter;stroke-opacity:1" />
    <text
       id="text889"
       y="55.119789"
       x="13.05023"
       style="font-style:normal;font-weight:normal;font-size:5.8224px;line-height:1.25;font-family:sans-serif;fill:#000000;fill-opacity:1;stroke:none;stroke-width:0.14556"
       xml:space="preserve"><tspan
         style="stroke-width:0.14556"
         y="55.119789"
         x="13.05023"
         id="tspan887"
         sodipodi:role="line">compile &amp; run</tspan></text>
    <text
       id="text893"
       y="54.391987"
       x="75.641266"
       style="font-style:normal;font-weight:normal;font-size:5.8224px;line-height:1.25;font-family:sans-serif;fill:#000000;fill-opacity:1;stroke:none;stroke-width:0.14556"
       xml:space="preserve"><tspan
         style="stroke-width:0.14556"
         y="54.391987"
         x="75.641266"
         id="tspan891"
         sodipodi:role="line">dbt</tspan></text>
    <text
       id="text897"
       y="38.380325"
       x="49.294804"
       style="font-style:normal;font-weight:normal;font-size:5.8224px;line-height:1.25;font-family:sans-serif;fill:#000000;fill-opacity:1;stroke:none;stroke-width:0.14556"
       xml:space="preserve"><tspan
         id="tspan903"
         style="stroke-width:0.14556"
         y="38.380325"
         x="49.294804"
         sodipodi:role="line">files/</tspan><tspan
         id="tspan907"
         style="stroke-width:0.14556"
         y="45.658325"
         x="49.294804"
         sodipodi:role="line">S3</tspan></text>
    <text
       id="text901"
       y="37.798084"
       x="96.456413"
       style="font-style:normal;font-weight:normal;font-size:5.8224px;line-height:1.25;font-family:sans-serif;fill:#000000;fill-opacity:1;stroke:none;stroke-width:0.14556"
       xml:space="preserve"><tspan
         style="stroke-width:0.14556"
         y="37.798084"
         x="96.456413"
         id="tspan899"
         sodipodi:role="line">jdbc</tspan></text>
  </g>
</svg>
